<svg width="13" height="24" viewBox="0 0 13 24" fill="none" xmlns="http://www.w3.org/2000/svg">
<path d="M8.67601 7.80001V5.72991C8.65404 5.48957 8.65404 5.24807 8.67601 5.00773C8.71241 4.82845 8.78863 4.65686 8.90059 4.50225C9.03942 4.32923 9.25059 4.20861 9.49028 4.16529C9.84446 4.12599 10.203 4.12599 10.5572 4.16529H12.9719V0.0250326H9.09716C8.22511 -0.0472501 7.34509 0.0374183 6.51345 0.273694C5.68181 0.509969 4.91689 0.892583 4.26778 1.39704C3.20611 2.53071 2.6845 3.96698 2.80777 5.41697V7.8241H0V11.9644H2.80777V24H8.61988V11.9644H12.4945L13 7.8241H8.61988L8.67601 7.80001Z" fill="white"/>
</svg>
