<svg width="56" height="56" viewBox="0 0 56 56" fill="none" xmlns="http://www.w3.org/2000/svg">
<circle cx="28" cy="28" r="28" fill="#F49879"/>
<path d="M41.0638 29.0018C41.0557 28.5088 41.0212 28.0167 40.9604 27.5275C40.8108 26.1032 40.4266 24.7138 39.8235 23.4164L39.5886 22.9628V22.8872H39.457H39.0436C37.895 22.9926 36.7628 23.2336 35.6703 23.6054L35.332 23.7283V23.4448C35.1169 22.0492 34.7449 20.6827 34.2232 19.3715C33.926 18.6419 33.5774 17.9344 33.1802 17.2546C32.3564 15.9135 31.3648 14.6843 30.2298 13.5972C29.6166 13.0565 28.9562 12.5725 28.2566 12.1512L28.0968 12.0473L28.0217 12L27.9465 12.0473L27.7961 12.1512C26.1626 13.2849 24.7593 14.722 23.6617 16.3851C22.8103 17.6289 22.1041 18.9671 21.557 20.3733C21.1608 21.38 20.8832 22.4298 20.7301 23.5015C20.7301 23.6054 20.7301 23.6999 20.7301 23.8039C20.7301 23.9079 20.3918 23.6621 19.7904 23.492L19.5743 23.4353C18.5659 23.1704 17.5386 22.9839 16.5017 22.8777L16.1447 23.7566C16.0413 23.9929 15.9379 24.2292 15.844 24.4749C15.1705 26.2841 14.8949 28.2186 15.0359 30.1453C15.1133 31.3164 15.3277 32.4742 15.6748 33.5948C16.5977 36.5963 18.3867 39.2542 20.8146 41.231C21.6088 41.9063 22.4869 42.475 23.4268 42.9226C24.8989 43.6115 26.5014 43.9726 28.125 43.9811H28.3505C30.1053 43.8646 31.8155 43.375 33.3682 42.5446C33.7252 42.3461 34.0823 42.1099 34.0917 42.1099C34.5731 41.7959 35.0345 41.4519 35.473 41.0797C36.7833 39.9781 37.9067 38.6694 38.7993 37.205C39.7086 35.7463 40.381 34.1511 40.7913 32.4796C41.0212 31.3356 41.1127 30.1679 41.0638 29.0018V29.0018ZM28.078 37.668C28.0686 39.0703 27.8338 40.4617 27.3827 41.7885C24.7146 41.3086 22.2686 39.9842 20.4012 38.0083C19.2045 36.6498 18.2935 35.0617 17.7232 33.3396V33.3396C17.2066 31.8565 16.9738 30.2885 17.0373 28.7183C17.1078 27.5383 17.3418 26.3741 17.7326 25.2593V25.2026H17.8548C18.6855 25.3517 19.5004 25.5795 20.2884 25.883L20.5234 25.9776C21.5388 26.458 22.4867 27.0713 23.3423 27.8015C24.6891 28.9179 25.7845 30.3096 26.5558 31.8842C26.7343 32.2623 26.8847 32.6592 26.9787 32.8955C27.3929 33.8199 27.7079 34.7862 27.9183 35.7779C28.0309 36.4014 28.0844 37.0343 28.078 37.668ZM28.0123 30.1075C27.532 29.2951 26.9817 28.5267 26.3679 27.811C26.0083 27.3808 25.6223 26.9736 25.2121 26.5919C24.8143 26.2018 24.3938 25.8357 23.953 25.4956C23.5584 25.212 23.1449 24.9474 22.7315 24.7017C22.8027 24.0399 22.9157 23.3833 23.0698 22.736C23.4726 21.0097 24.1688 19.3664 25.1276 17.8783C25.7083 17.0028 26.3723 16.1862 27.1102 15.44C27.4203 15.1282 27.7492 14.8163 28.0498 14.495C29.5497 15.6838 30.7906 17.1699 31.6956 18.8612C32.2358 19.9058 32.6551 21.0093 32.9453 22.15C33.1591 22.9748 33.3068 23.8154 33.387 24.6639C32.2155 25.3433 31.1435 26.183 30.2016 27.1589C29.3563 28.0494 28.6212 29.0395 28.0123 30.1075V30.1075ZM37.1079 35.8441C35.4312 38.6555 32.7371 40.7047 29.5908 41.5617C29.8284 40.7439 29.9888 39.9054 30.0701 39.0573C30.1492 38.1928 30.1492 37.3228 30.0701 36.4584C29.9448 35.0728 29.6285 33.7114 29.1304 32.4135C29.5557 31.4665 30.0886 30.5721 30.7184 29.7484C31.3348 28.9363 32.0444 28.2004 32.8326 27.5558C33.6534 26.8975 34.557 26.351 35.5199 25.9303C36.4011 25.5491 37.3259 25.2793 38.2731 25.127C38.4371 25.6458 38.575 26.1725 38.6865 26.7053C38.8838 27.9244 38.9778 28.8695 38.9872 28.964C39.0368 31.392 38.384 33.7823 37.1079 35.8441V35.8441Z" fill="white"/>
</svg>
